<svg width="15" height="13" viewBox="0 0 15 13" fill="none" xmlns="http://www.w3.org/2000/svg">
<path d="M6.22791 6.91473C6.22791 6.91473 4.3528 5.62558 2.12598 5.15675L6.46238 10.0791L14.1975 2.09808e-05C14.1975 2.09808e-05 8.80643 2.92993 6.22791 6.91473Z" fill="#5F3EED"/>
<path d="M10.9255 6.7785C10.6461 6.7785 10.4196 7.00498 10.4196 7.28436C10.4196 8.54124 9.93025 9.72229 9.04136 10.6105C8.15356 11.499 6.9726 11.9884 5.71563 11.9884C3.1218 11.9884 1.01164 9.8782 1.01164 7.28436C1.01164 6.0274 1.50111 4.84635 2.39 3.95827C3.27762 3.06975 4.45876 2.58037 5.71563 2.58037C5.97645 2.58037 6.2379 2.60184 6.49264 2.64415C6.76804 2.68999 7.02877 2.50364 7.07451 2.22797C7.12026 1.95238 6.93392 1.69193 6.65843 1.64618C6.34888 1.59473 6.03171 1.56873 5.71563 1.56873C4.18825 1.56873 2.753 2.16347 1.67468 3.24296C0.594826 4.32173 0 5.75707 0 7.28436C0 10.436 2.56403 13 5.71563 13C7.24302 13 8.67818 12.4053 9.75658 11.3257C10.8366 10.2468 11.4313 8.81175 11.4313 7.28436C11.4313 7.00498 11.2049 6.7785 10.9255 6.7785Z" fill="#5F3EED"/>
</svg>
